<svg xmlns="http://www.w3.org/2000/svg" width="152" height="26">
  <path fill="#FFF" fill-rule="evenodd" d="M.396 13.939c0-.313-.006-.849-.018-1.607C.366 11.574.36 10.773.36 9.93c0-.867-.006-1.674-.018-2.42C.33 6.765.324 6.247.324 5.958.324 5.14.3 4.237.252 3.25A62.205 62.205 0 0 0 0 0c.647.072 1.372.144 2.176.217.803.072 1.552.108 2.247.108.671 0 1.42-.03 2.247-.09C7.498.175 8.223.096 8.846 0a80.687 80.687 0 0 0-.18 2.636c-.048.915-.09 1.824-.126 2.726a102.6 102.6 0 0 0-.072 2.6c-.012.831-.018 1.595-.018 2.294.552.024 1.163.042 1.834.054.672.012 1.367.018 2.086.018.623 0 1.283-.012 1.978-.036a59.234 59.234 0 0 1 2.05-.036c0-.723-.007-1.511-.019-2.366a99.524 99.524 0 0 0-.071-2.618c-.036-.89-.078-1.787-.126-2.69A74.973 74.973 0 0 0 16.002 0c.647.072 1.378.144 2.193.217a25.44 25.44 0 0 0 2.23.108c.671 0 1.42-.03 2.247-.09S24.225.096 24.848 0a81.98 81.98 0 0 0-.306 4.694c-.06 1.613-.09 3.491-.09 5.634 0 1.613.012 3.087.036 4.423.024 1.337.054 2.612.09 3.828l.108 3.575c.036 1.168.078 2.402.126 3.702a33.652 33.652 0 0 0-4.71-.325c-.696 0-1.385.03-2.068.09a41.81 41.81 0 0 0-2.068.235c.096-.795.174-1.752.234-2.871.06-1.12.102-2.251.126-3.395.023-1.143.041-2.227.053-3.25.012-1.023.018-1.847.018-2.473a55.19 55.19 0 0 1-1.977-.036 56.177 56.177 0 0 0-2.014-.037 114.5 114.5 0 0 0-3.956.073c0 .65.006 1.486.018 2.51.012 1.023.03 2.106.054 3.25.024 1.143.06 2.268.108 3.376.048 1.107.108 2.058.18 2.853a23.398 23.398 0 0 0-2.23-.253 35.035 35.035 0 0 0-2.265-.072c-.91 0-1.702.03-2.373.09-.671.06-1.319.138-1.942.235l.144-1.806c.048-.53.09-1.198.126-2.004.036-.807.06-1.673.072-2.6l.036-2.835c.012-.963.018-1.854.018-2.672zm34.952 6.32c0 .625.102 1.173.306 1.642.203.47.605.705 1.204.705.552 0 .977-.157 1.277-.47.3-.313.45-.71.45-1.192v-4.622a15.45 15.45 0 0 0-1.69.74c-.432.23-.762.488-.99.777-.227.289-.377.62-.45.993-.071.373-.107.849-.107 1.426zm-7.12.794c0-.963.162-1.764.486-2.402a4.51 4.51 0 0 1 1.366-1.607c.587-.433 1.283-.794 2.086-1.083a39.606 39.606 0 0 1 2.607-.83 53.427 53.427 0 0 0 2.031-.56c.516-.157.911-.32 1.187-.488.276-.168.461-.36.557-.577.096-.217.144-.494.144-.831 0-.506-.078-.92-.234-1.246a1.781 1.781 0 0 0-.665-.758 2.642 2.642 0 0 0-1.007-.361 7.89 7.89 0 0 0-1.222-.09c-.791 0-1.546.144-2.266.433-.719.289-1.282.794-1.69 1.516l-1.043-.072-.719-3.214c1.295-.698 2.56-1.215 3.794-1.552 1.235-.337 2.595-.506 4.081-.506 1.367 0 2.547.156 3.542.47.995.312 1.816.728 2.464 1.245.647.518 1.126 1.126 1.438 1.824.312.698.467 1.432.467 2.203 0 .457-.012 1.005-.036 1.643-.024.638-.042 1.288-.054 1.95-.012.662-.03 1.3-.053 1.914a37.835 37.835 0 0 0-.018 2.78c.012.373.06.704.143.993.084.29.21.512.378.668.168.157.407.235.72.235.43 0 .874-.132 1.33-.397-.024.192-.048.373-.072.541-.024.169-.036.35-.036.542 0 .169.012.331.036.488l.072.487c-.672.506-1.463.897-2.374 1.174-.91.277-1.75.415-2.517.415-.6 0-1.115-.042-1.546-.126a3.58 3.58 0 0 1-1.115-.398 3.964 3.964 0 0 1-.827-.632 8.782 8.782 0 0 1-.647-.722 6.238 6.238 0 0 1-2.32 1.409 8.208 8.208 0 0 1-2.714.469 9.834 9.834 0 0 1-2.284-.253 4.63 4.63 0 0 1-1.834-.866 4.175 4.175 0 0 1-1.204-1.553c-.288-.626-.432-1.384-.432-2.275zm30.637-2.672c.36-1.084.684-2.083.971-2.998.288-.914.558-1.811.81-2.69a1564.48 1564.48 0 0 0 1.636-5.76c.383.097.76.175 1.132.235.372.06.761.09 1.169.09.767 0 1.546-.108 2.337-.325a333.135 333.135 0 0 0-3.74 9.407 238.124 238.124 0 0 0-3.38 9.516 21.29 21.29 0 0 0-1.402-.235c-.456-.06-.923-.09-1.402-.09-.528 0-1.043.03-1.547.09-.503.06-1.019.138-1.546.235-.168-.578-.336-1.15-.503-1.716a55.964 55.964 0 0 0-.54-1.715 87.206 87.206 0 0 0-1.798-5.164 254.177 254.177 0 0 1-1.906-5.128c-.335-.866-.683-1.733-1.042-2.6a28.216 28.216 0 0 1-.935-2.6c.647.12 1.354.205 2.121.253a33.102 33.102 0 0 0 4.37 0 23.473 23.473 0 0 0 2.21-.253 479.18 479.18 0 0 0 1.223 4.875 311.8 311.8 0 0 0 1.295 4.875l.467 1.698zm25.999 2.997c-.168.313-.312.59-.432.83-.12.241-.227.482-.323.723-.096.24-.186.487-.27.74-.084.253-.174.548-.27.885-.958.457-2.001.794-3.128 1.01-1.127.217-2.23.326-3.308.326-1.415 0-2.65-.145-3.704-.434-1.055-.289-1.96-.686-2.715-1.191a7.057 7.057 0 0 1-1.852-1.77 10.171 10.171 0 0 1-1.15-2.076 9.443 9.443 0 0 1-.594-2.13 13.17 13.17 0 0 1-.162-1.969c0-1.3.192-2.528.576-3.683a8.165 8.165 0 0 1 1.762-3.015c.79-.855 1.786-1.535 2.984-2.04 1.199-.506 2.625-.759 4.28-.759 1.438 0 2.798.277 4.08.83 1.283.554 2.356 1.409 3.22 2.564.718 1.036 1.162 2.137 1.33 3.305.167 1.167.275 2.293.323 3.376-.48-.024-.995-.048-1.546-.072a37.107 37.107 0 0 0-1.618-.036c-2.59 0-5.178.036-7.767.108 0 .722.084 1.414.251 2.076.168.662.438 1.258.81 1.788.371.53.844.95 1.42 1.264.575.313 1.258.47 2.05.47a5.47 5.47 0 0 0 1.258-.163 8.591 8.591 0 0 0 1.33-.434 8.01 8.01 0 0 0 1.241-.65 5.143 5.143 0 0 0 1.025-.848l.899.975zm-6.221-7.006c0-.578-.006-1.167-.018-1.77a7.613 7.613 0 0 0-.198-1.642c-.12-.494-.311-.897-.575-1.21-.264-.313-.647-.47-1.15-.47-.528 0-.936.163-1.223.488-.288.325-.498.734-.63 1.228a7.532 7.532 0 0 0-.233 1.643c-.024.602-.036 1.18-.036 1.733h4.063zm23.41-.397a64.19 64.19 0 0 0-4.352-.144c0 .722.006 1.625.018 2.708.012 1.083.036 2.197.072 3.34.036 1.144.078 2.251.126 3.322.048 1.072.108 1.956.18 2.655a30.137 30.137 0 0 0-4.423-.325c-.695 0-1.402.03-2.122.09-.719.06-1.426.138-2.121.235.144-2.6.24-5.158.287-7.674.048-2.516.072-5.074.072-7.674 0-1.757-.036-3.508-.107-5.254A195.485 195.485 0 0 0 89.395 0c1.582.12 3.122.205 4.62.253 1.499.048 2.895.072 4.19.072 1.294 0 2.66-.024 4.1-.072A69.442 69.442 0 0 0 106.403 0c-.024.337-.06.668-.108.993a6.795 6.795 0 0 0-.072.993c0 .337.018.662.054.975.036.313.078.638.126.975-.792-.048-1.619-.09-2.482-.126-.863-.036-1.69-.073-2.48-.109a80.504 80.504 0 0 0-3.633-.09 124.8 124.8 0 0 0-.09 3.575 344.886 344.886 0 0 0-.018 3.575 215.763 215.763 0 0 0 3.974-.072c.875-.024 1.72-.06 2.535-.108.815-.049 1.438-.109 1.87-.181-.048.265-.09.578-.126.939-.036.361-.054.698-.054 1.011 0 .289.018.614.054.975.036.361.078.674.126.939l-4.027-.289zm7.659.325c0-1.661.006-3.051.018-4.17.012-1.12-.03-2.186-.126-3.197.695.073 1.396.145 2.104.217.707.072 1.408.108 2.103.108.624 0 1.235-.03 1.834-.09.6-.06 1.21-.138 1.834-.235-.048.723-.09 1.397-.126 2.023a81.978 81.978 0 0 0-.09 2.058 131.99 131.99 0 0 0-.054 2.528c-.012.939-.018 2.094-.018 3.466 0 .578.012 1.144.036 1.698.024.553.096 1.035.216 1.444.12.41.318.74.593.993.276.253.666.38 1.17.38.503 0 .892-.157 1.168-.47.275-.313.473-.71.593-1.192.12-.481.192-1.017.216-1.607.024-.59.036-1.173.036-1.751 0-1.59-.006-3.22-.018-4.893a62.12 62.12 0 0 0-.198-4.677c.695.097 1.373.175 2.032.235s1.336.09 2.031.09c1.271 0 2.554-.108 3.848-.325a30.56 30.56 0 0 0-.144 1.39 38.114 38.114 0 0 0-.108 1.896c-.024.699-.042 1.427-.054 2.185a145.1 145.1 0 0 0-.018 2.293v2.78c0 1.879.018 3.473.054 4.786.036 1.312.114 2.51.234 3.593a67.493 67.493 0 0 0-1.888-.217 20.02 20.02 0 0 0-2.031-.108c-.6 0-1.205.036-1.816.108-.612.072-1.217.144-1.816.217.096-.94.168-1.866.215-2.781-.479.506-.928.939-1.348 1.3a6.69 6.69 0 0 1-1.295.885 4.81 4.81 0 0 1-1.456.47c-.527.083-1.15.126-1.87.126-1.966 0-3.44-.53-4.423-1.59-.983-1.059-1.474-2.563-1.474-4.513v-1.264c0-.482.006-.97.018-1.463.012-.493.018-.969.018-1.426v-1.3zm23.337-.686c0-1.3-.024-2.456-.071-3.467a55.568 55.568 0 0 0-.252-3.214c.6.097 1.228.175 1.888.235a21.39 21.39 0 0 0 5.664-.235 27.84 27.84 0 0 1-.216 2.817c.431-.481.857-.903 1.276-1.264.42-.361.857-.668 1.313-.92.455-.254.935-.44 1.438-.56a7.456 7.456 0 0 1 1.726-.181c2.014 0 3.536.524 4.567 1.57 1.03 1.048 1.546 2.583 1.546 4.605v1.372c0 .506-.006 1.023-.018 1.553-.012.53-.018 1.047-.018 1.553v2.925c0 .89.006 1.83.018 2.816.012.987.042 1.866.09 2.637a35.578 35.578 0 0 0-1.942-.235c-.647-.06-1.294-.09-1.942-.09-.623 0-1.282.03-1.977.09a29.15 29.15 0 0 0-1.978.235c.096-1.806.168-3.575.216-5.309a191.8 191.8 0 0 0 .072-5.308c0-.482-.012-.951-.036-1.408a4.638 4.638 0 0 0-.234-1.264 2.078 2.078 0 0 0-.593-.921c-.264-.229-.636-.343-1.115-.343-.528 0-.93.156-1.205.47-.276.312-.48.721-.611 1.227a8.078 8.078 0 0 0-.234 1.733c-.024.65-.036 1.312-.036 1.986v3.25c0 1.397.018 2.54.054 3.431.036.89.09 1.71.162 2.456a35.224 35.224 0 0 1-2.032-.2 16.014 16.014 0 0 0-2.032-.125c-.647 0-1.288.036-1.923.108l-1.924.217c.144-1.541.24-3.094.288-4.659.047-1.565.071-3.141.071-4.73v-2.853z"/>
</svg>
